<svg width="22" height="22" viewBox="0 0 22 22" fill="none" xmlns="http://www.w3.org/2000/svg">
<path d="M6.22903 0.8125C6.22903 0.597012 6.14343 0.390349 5.99106 0.237976C5.83868 0.0856025 5.63202 0 5.41653 0C5.20104 0 4.99438 0.0856025 4.84201 0.237976C4.68964 0.390349 4.60403 0.597012 4.60403 0.8125V2.52417C3.04403 2.64875 2.02137 2.95425 1.26953 3.70717C0.516616 4.459 0.211116 5.48275 0.0854492 7.04167H21.5809C21.4553 5.48167 21.1498 4.459 20.3969 3.70717C19.645 2.95425 18.6213 2.64875 17.0624 2.52308V0.8125C17.0624 0.597012 16.9768 0.390349 16.8244 0.237976C16.672 0.0856025 16.4654 0 16.2499 0C16.0344 0 15.8277 0.0856025 15.6753 0.237976C15.523 0.390349 15.4374 0.597012 15.4374 0.8125V2.45158C14.7169 2.4375 13.9088 2.4375 12.9999 2.4375H8.66653C7.75762 2.4375 6.94945 2.4375 6.22903 2.45158V0.8125Z" fill="#83CC39"/>
<path fill-rule="evenodd" clip-rule="evenodd" d="M0 11.1042C0 10.1953 1.21072e-08 9.38709 0.0140833 8.66667H21.6526C21.6667 9.38709 21.6667 10.1953 21.6667 11.1042V13.2708C21.6667 17.3561 21.6667 19.3993 20.397 20.6678C19.1284 21.9375 17.0853 21.9375 13 21.9375H8.66667C4.58142 21.9375 2.53825 21.9375 1.26967 20.6678C-1.29143e-07 19.3993 0 17.3561 0 13.2708V11.1042ZM16.25 13.2708C16.5373 13.2708 16.8129 13.1567 17.016 12.9535C17.2192 12.7504 17.3333 12.4748 17.3333 12.1875C17.3333 11.9002 17.2192 11.6246 17.016 11.4215C16.8129 11.2183 16.5373 11.1042 16.25 11.1042C15.9627 11.1042 15.6871 11.2183 15.484 11.4215C15.2808 11.6246 15.1667 11.9002 15.1667 12.1875C15.1667 12.4748 15.2808 12.7504 15.484 12.9535C15.6871 13.1567 15.9627 13.2708 16.25 13.2708ZM16.25 17.6042C16.5373 17.6042 16.8129 17.49 17.016 17.2869C17.2192 17.0837 17.3333 16.8082 17.3333 16.5208C17.3333 16.2335 17.2192 15.958 17.016 15.7548C16.8129 15.5516 16.5373 15.4375 16.25 15.4375C15.9627 15.4375 15.6871 15.5516 15.484 15.7548C15.2808 15.958 15.1667 16.2335 15.1667 16.5208C15.1667 16.8082 15.2808 17.0837 15.484 17.2869C15.6871 17.49 15.9627 17.6042 16.25 17.6042ZM11.9167 12.1875C11.9167 12.4748 11.8025 12.7504 11.5994 12.9535C11.3962 13.1567 11.1207 13.2708 10.8333 13.2708C10.546 13.2708 10.2705 13.1567 10.0673 12.9535C9.86414 12.7504 9.75 12.4748 9.75 12.1875C9.75 11.9002 9.86414 11.6246 10.0673 11.4215C10.2705 11.2183 10.546 11.1042 10.8333 11.1042C11.1207 11.1042 11.3962 11.2183 11.5994 11.4215C11.8025 11.6246 11.9167 11.9002 11.9167 12.1875ZM11.9167 16.5208C11.9167 16.8082 11.8025 17.0837 11.5994 17.2869C11.3962 17.49 11.1207 17.6042 10.8333 17.6042C10.546 17.6042 10.2705 17.49 10.0673 17.2869C9.86414 17.0837 9.75 16.8082 9.75 16.5208C9.75 16.2335 9.86414 15.958 10.0673 15.7548C10.2705 15.5516 10.546 15.4375 10.8333 15.4375C11.1207 15.4375 11.3962 15.5516 11.5994 15.7548C11.8025 15.958 11.9167 16.2335 11.9167 16.5208ZM5.41667 13.2708C5.70398 13.2708 5.97953 13.1567 6.1827 12.9535C6.38586 12.7504 6.5 12.4748 6.5 12.1875C6.5 11.9002 6.38586 11.6246 6.1827 11.4215C5.97953 11.2183 5.70398 11.1042 5.41667 11.1042C5.12935 11.1042 4.8538 11.2183 4.65063 11.4215C4.44747 11.6246 4.33333 11.9002 4.33333 12.1875C4.33333 12.4748 4.44747 12.7504 4.65063 12.9535C4.8538 13.1567 5.12935 13.2708 5.41667 13.2708ZM5.41667 17.6042C5.70398 17.6042 5.97953 17.49 6.1827 17.2869C6.38586 17.0837 6.5 16.8082 6.5 16.5208C6.5 16.2335 6.38586 15.958 6.1827 15.7548C5.97953 15.5516 5.70398 15.4375 5.41667 15.4375C5.12935 15.4375 4.8538 15.5516 4.65063 15.7548C4.44747 15.958 4.33333 16.2335 4.33333 16.5208C4.33333 16.8082 4.44747 17.0837 4.65063 17.2869C4.8538 17.49 5.12935 17.6042 5.41667 17.6042Z" fill="#83CC39"/>
</svg>
