<svg width="22" height="22" viewBox="0 0 22 22" fill="none" xmlns="http://www.w3.org/2000/svg">
<path d="M10.8333 0C9.41068 0 8.00196 0.280213 6.6876 0.824638C5.37324 1.36906 4.17898 2.16704 3.17301 3.17301C1.14137 5.20465 0 7.96016 0 10.8333C0 13.7065 1.14137 16.462 3.17301 18.4937C4.17898 19.4996 5.37324 20.2976 6.6876 20.842C8.00196 21.3865 9.41068 21.6667 10.8333 21.6667C13.7065 21.6667 16.462 20.5253 18.4937 18.4937C20.5253 16.462 21.6667 13.7065 21.6667 10.8333C21.6667 9.41068 21.3865 8.00196 20.842 6.6876C20.2976 5.37324 19.4996 4.17898 18.4937 3.17301C17.4877 2.16704 16.2934 1.36906 14.9791 0.824638C13.6647 0.280213 12.256 0 10.8333 0ZM15.3833 15.3833L9.75 11.9167V5.41667H11.375V11.05L16.25 13.975L15.3833 15.3833Z" fill="#1D2B07"/>
</svg>
