<svg width="27" height="27" viewBox="0 0 27 27" fill="none" xmlns="http://www.w3.org/2000/svg">
<path d="M13.5 2.25C16.1853 2.25 18.7606 3.31674 20.6595 5.21554C22.5583 7.11435 23.625 9.68968 23.625 12.375C23.625 15.8333 21.7395 18.6637 19.7528 20.6944C18.76 21.6978 17.6769 22.6076 16.5173 23.4124L16.038 23.7386L15.813 23.8882L15.3889 24.1583L15.0109 24.3889L14.5429 24.6611C14.2251 24.842 13.8657 24.9371 13.5 24.9371C13.1343 24.9371 12.7749 24.842 12.4571 24.6611L11.9891 24.3889L11.4041 24.0289L11.1881 23.8882L10.7269 23.5811C9.47585 22.7344 8.31045 21.7675 7.24725 20.6944C5.2605 18.6626 3.375 15.8333 3.375 12.375C3.375 9.68968 4.44174 7.11435 6.34054 5.21554C8.23935 3.31674 10.8147 2.25 13.5 2.25ZM13.5 9C13.0568 9 12.6179 9.0873 12.2084 9.25691C11.799 9.42652 11.4269 9.67512 11.1135 9.98851C10.8001 10.3019 10.5515 10.674 10.3819 11.0834C10.2123 11.4929 10.125 11.9318 10.125 12.375C10.125 12.8182 10.2123 13.2571 10.3819 13.6666C10.5515 14.076 10.8001 14.4481 11.1135 14.7615C11.4269 15.0749 11.799 15.3235 12.2084 15.4931C12.6179 15.6627 13.0568 15.75 13.5 15.75C14.3951 15.75 15.2536 15.3944 15.8865 14.7615C16.5194 14.1286 16.875 13.2701 16.875 12.375C16.875 11.4799 16.5194 10.6214 15.8865 9.98851C15.2536 9.35558 14.3951 9 13.5 9Z" fill="#1D2B07"/>
</svg>
