<svg width="19" height="17" viewBox="0 0 19 17" fill="none" xmlns="http://www.w3.org/2000/svg">
<path d="M9.53986 0C7.82948 0 6.32203 1.13657 5.83887 2.788C5.32673 2.55486 4.78559 2.42857 4.22513 2.42857C3.2 2.42857 2.21685 2.83796 1.49197 3.56667C0.767095 4.29538 0.359863 5.28373 0.359863 6.31429C0.362153 7.17481 0.64782 8.01036 1.17226 8.69047C1.69671 9.37058 2.43041 9.85698 3.25881 10.0737V17H15.8209V10.0737C17.5216 9.62686 18.7199 8.08229 18.7199 6.31429C18.7199 5.28373 18.3126 4.29538 17.5878 3.56667C16.8629 2.83796 15.8797 2.42857 14.8546 2.42857C14.2941 2.42857 13.753 2.55486 13.2409 2.788C12.7577 1.13657 11.2502 0 9.53986 0ZM9.05671 8.74286H10.023V15.5429H9.05671V8.74286ZM6.15776 10.6857H7.12407V15.5429H6.15776V10.6857ZM11.9557 10.6857H12.922V15.5429H11.9557V10.6857Z" fill="#E3E3E3"/>
</svg>
