<svg width="31" height="31" viewBox="0 0 31 31" fill="none" xmlns="http://www.w3.org/2000/svg">
<path d="M22.1783 13.1566C22.8435 13.1584 23.5023 13.0283 24.1168 12.7737C24.7313 12.5191 25.2892 12.1452 25.7582 11.6735L30.63 6.8048C31.0154 6.41948 31.0508 5.79247 30.6838 5.38816C30.5917 5.28659 30.4799 5.20479 30.3552 5.14773C30.2305 5.09067 30.0955 5.05954 29.9584 5.05622C29.8213 5.05291 29.685 5.07748 29.5577 5.12845C29.4304 5.17942 29.3148 5.25573 29.2178 5.35273L24.8756 9.69185C24.7298 9.83747 24.5321 9.91927 24.3261 9.91927C24.12 9.91927 23.9223 9.83747 23.7765 9.69185C23.4735 9.38941 23.4899 8.87819 23.7924 8.57575L28.1157 4.25245C28.2126 4.15554 28.2888 4.03995 28.3397 3.9127C28.3906 3.78546 28.4151 3.6492 28.4118 3.51218C28.4085 3.37517 28.3774 3.24026 28.3204 3.11562C28.2634 2.99098 28.1817 2.87922 28.0802 2.7871C27.897 2.62092 27.6582 2.52949 27.4108 2.53085C27.1305 2.53104 26.8617 2.64256 26.6636 2.84088L22.3441 7.15975C22.1983 7.30537 22.0007 7.38716 21.7946 7.38716C21.5885 7.38716 21.3909 7.30537 21.2451 7.15975C20.9426 6.85731 20.9585 6.34609 21.2609 6.04365L25.5842 1.72162C25.6811 1.6247 25.7573 1.50912 25.8082 1.38187C25.8591 1.25462 25.8837 1.11836 25.8804 0.981349C25.8771 0.844336 25.846 0.709422 25.789 0.584784C25.732 0.460146 25.6502 0.348381 25.5488 0.256262C25.3656 0.0900885 25.1267 -0.00134613 24.8794 1.49804e-05C24.5991 0.000346794 24.3303 0.111842 24.1321 0.310042L19.2634 5.17874C18.7917 5.64781 18.4177 6.2058 18.1632 6.8204C17.9086 7.435 17.7785 8.094 17.7804 8.75924V9.27996C17.7805 9.41309 17.7543 9.54493 17.7034 9.66794C17.6525 9.79095 17.5778 9.90271 17.4836 9.99682L15.2305 12.2505C15.207 12.2741 15.1791 12.2927 15.1484 12.3055C15.1177 12.3182 15.0847 12.3248 15.0515 12.3248C15.0182 12.3248 14.9853 12.3182 14.9546 12.3055C14.9239 12.2927 14.8959 12.2741 14.8724 12.2505L3.90886 1.28631C3.71963 1.09687 3.46307 0.990115 3.19531 0.989404C2.92756 0.988692 2.67043 1.09409 2.4802 1.28252C1.52165 2.23221 1.00979 3.57292 1.00979 5.15912C1.00346 7.77854 2.38023 10.7902 4.60294 13.0098L10.0094 18.4163C10.7779 19.1831 11.8191 19.6139 12.9047 19.614C13.2508 19.6141 13.5955 19.5699 13.9303 19.4824C14.0144 19.4604 14.1009 19.4491 14.1878 19.4489C14.442 19.4489 14.6867 19.5449 14.8731 19.7178L15.5937 20.3834C15.7796 20.5733 15.884 20.8282 15.8848 21.0939V21.4444C15.8829 22.2413 16.1961 23.0065 16.756 23.5735L22.4536 29.3672L22.4592 29.3735C23.0916 30.0058 23.9493 30.361 24.8435 30.3609C25.7378 30.3609 26.5954 30.0056 27.2277 29.3732C27.8599 28.7408 28.2151 27.8832 28.2151 26.9889C28.215 26.0947 27.8597 25.2371 27.2273 24.6048L18.687 16.0645C18.6635 16.041 18.6448 16.0131 18.6321 15.9824C18.6194 15.9516 18.6128 15.9187 18.6128 15.8854C18.6128 15.8522 18.6194 15.8192 18.6321 15.7885C18.6448 15.7578 18.6635 15.7299 18.687 15.7064L20.9401 13.4533C21.0341 13.3592 21.1458 13.2846 21.2687 13.2337C21.3916 13.1827 21.5233 13.1565 21.6563 13.1566H22.1783Z" fill="#B1B1B1"/>
<path d="M12.9049 21.6389C11.2841 21.6356 9.73003 20.9934 8.57973 19.8515L7.70279 18.9746C7.6079 18.8799 7.47934 18.8268 7.34531 18.8268C7.21128 18.8268 7.08272 18.8799 6.98783 18.9746L1.60981 24.3248C0.651254 25.2833 0.308958 26.6943 0.78349 28.0761C0.810049 28.154 0.841537 28.23 0.877763 28.3039C1.51617 29.6111 2.75501 30.3703 4.11027 30.3703C4.57635 30.3715 5.03802 30.2801 5.46854 30.1016C5.89906 29.923 6.28987 29.6608 6.61833 29.3301L13.7907 22.1236C13.8209 22.0928 13.844 22.0558 13.8584 22.0151C13.8729 21.9745 13.8783 21.9312 13.8742 21.8882V21.8718C13.8714 21.8323 13.8606 21.7938 13.8426 21.7587C13.8245 21.7235 13.7995 21.6923 13.769 21.6671C13.7386 21.6419 13.7033 21.623 13.6654 21.6118C13.6275 21.6005 13.5877 21.5971 13.5484 21.6016C13.3347 21.6253 13.1199 21.6378 12.9049 21.6389Z" fill="#B1B1B1"/>
</svg>
