<svg width="20" height="20" viewBox="0 0 20 20" fill="none" xmlns="http://www.w3.org/2000/svg">
<path d="M17.554 13.2708L14.8023 12.9567C14.4788 12.9187 14.1508 12.9545 13.8431 13.0614C13.5354 13.1684 13.2559 13.3437 13.0256 13.5742L11.0323 15.5675C7.95693 14.0034 5.45724 11.5037 3.89315 8.42834L5.89731 6.42417C6.36315 5.95833 6.59065 5.30833 6.51481 4.6475L6.20065 1.9175C6.13923 1.38903 5.88561 0.90159 5.48807 0.548003C5.09053 0.194415 4.57685 -0.000630777 4.04481 1.53258e-06H2.17065C0.94648 1.53258e-06 -0.0718537 1.01833 0.0039796 2.2425C0.578146 11.4942 7.97731 18.8825 17.2181 19.4567C18.4423 19.5325 19.4606 18.5142 19.4606 17.29V15.4158C19.4715 14.3217 18.6481 13.4008 17.554 13.2708Z" fill="#1D2B07"/>
</svg>
