<svg width="31" height="31" viewBox="0 0 31 31" fill="none" xmlns="http://www.w3.org/2000/svg">
<path d="M15.52 11.8101C18.316 11.8101 20.5825 9.5435 20.5825 6.74756C20.5825 3.95162 18.316 1.68506 15.52 1.68506C12.7241 1.68506 10.4575 3.95162 10.4575 6.74756C10.4575 9.5435 12.7241 11.8101 15.52 11.8101Z" fill="#B1B1B1" stroke="#B1B1B1" stroke-width="2.70833"/>
<path d="M2.02002 25.3101C2.02002 23.5198 2.73118 21.803 3.99705 20.5371C5.26292 19.2712 6.97981 18.5601 8.77002 18.5601H22.27C24.0602 18.5601 25.7771 19.2712 27.043 20.5371C28.3089 21.803 29.02 23.5198 29.02 25.3101C29.02 26.2052 28.6644 27.0636 28.0315 27.6965C27.3986 28.3295 26.5401 28.6851 25.645 28.6851H5.39502C4.49991 28.6851 3.64147 28.3295 3.00853 27.6965C2.3756 27.0636 2.02002 26.2052 2.02002 25.3101Z" fill="#B1B1B1" stroke="#B1B1B1" stroke-width="2.70833" stroke-linejoin="round"/>
</svg>
